<?xml version="1.0" encoding="UTF-8"?>
<svg version="1.1" xmlns="http://www.w3.org/2000/svg" width="3300" height="3300">
<path d="M0 0 C4.05684253 0.41511877 6.95269345 2.8997244 10.125 5.25 C11.03427246 5.91165161 11.03427246 5.91165161 11.96191406 6.58666992 C13.28199684 7.54744121 14.60028591 8.51068072 15.91699219 9.47607422 C18.76778631 11.56171146 21.63402215 13.62563656 24.49975586 15.69067383 C29.85606686 19.55114621 35.20412159 23.42305137 40.55078125 27.296875 C47.83809915 32.57332794 55.14142863 37.82326124 62.5 43 C70.62784334 48.71791991 78.68666044 54.52824095 86.73388672 60.35888672 C90.48644811 63.07648181 94.24347667 65.78788573 98 68.5 C99.4869833 69.57421303 100.97396246 70.64843179 102.4609375 71.72265625 C105.58970501 73.98247289 108.72014802 76.23994658 111.8515625 78.49609375 C112.65078125 79.07230469 113.45 79.64851563 114.2734375 80.2421875 C115.78601316 81.33264902 117.29900059 82.42253971 118.8125 83.51171875 C123.58382841 86.95275113 128.30577763 90.45453148 133 94 C132.38411051 97.52079338 131.00496015 99.61768091 128.82421875 102.421875 C127.83905273 103.69998047 127.83905273 103.69998047 126.83398438 105.00390625 C126.12564453 105.91011719 125.41730469 106.81632812 124.6875 107.75 C123.2117229 109.66105945 121.73646637 111.572521 120.26171875 113.484375 C119.53259277 114.42603516 118.8034668 115.36769531 118.05224609 116.33789062 C115.33258249 119.8657531 112.66130639 123.42803873 110 127 C104.68751016 134.11012747 99.306941 141.16741001 93.921875 148.22265625 C89.92399246 153.46415493 85.94660028 158.71979578 82 164 C76.69789051 171.09375638 71.33048167 178.13670285 65.95703125 185.17651367 C59.9258017 193.08375309 53.95064121 201.03200125 48 209 C51.10974281 212.89969536 54.10958568 216.10506154 58.0625 219.1875 C62.19399856 222.48715321 66.13705618 225.89667611 70 229.5 C74.60944016 233.79016515 79.37788591 237.80415207 84.28515625 241.75390625 C88.06567286 244.88167179 91.64480875 248.21273883 95.25390625 251.53515625 C97.91875166 253.92707297 100.64831825 256.19254884 103.4375 258.4375 C107.97236161 262.09506264 112.25536183 265.94617027 116.51708984 269.91162109 C120.62779276 273.71398807 124.92275584 277.24270592 129.28515625 280.75390625 C132.10673495 283.0883059 134.80590712 285.51990598 137.5 288 C141.93360653 292.08093328 146.51823547 295.90143381 151.20703125 299.68359375 C155.95607093 303.62230778 160.47475702 307.80736675 165 312 C168.48509931 310.45555924 171.14322337 308.37524647 174.0625 305.9375 C175.03316406 305.13183594 176.00382812 304.32617188 177.00390625 303.49609375 C178.48697266 302.26052734 178.48697266 302.26052734 180 301 C181.8317253 299.49803678 183.6650256 297.99799201 185.5 296.5 C186.86125 295.38625 186.86125 295.38625 188.25 294.25 C209.33333333 277 230.41666667 259.75 251.5 242.5 C252.40105469 241.76265625 253.30210938 241.0253125 254.23046875 240.265625 C256.12844551 238.71297828 258.02690757 237.16092466 259.92578125 235.609375 C260.87839844 234.83078125 261.83101562 234.0521875 262.8125 233.25 C263.71742187 232.51523437 264.62234375 231.78046875 265.5546875 231.0234375 C267.57051397 229.3553894 269.50302041 227.63450154 271.4375 225.875 C274 224 274 224 275.98925781 224.20727539 C279.44652947 225.57028669 281.45287192 228.63002044 283.75 231.4375 C284.28512207 232.0771167 284.82024414 232.7167334 285.37158203 233.37573242 C288.88883569 237.59611889 292.33933773 241.86967884 295.74609375 246.1796875 C298.77090967 249.96463914 301.85393617 253.7003525 304.9375 257.4375 C305.54730713 258.17669678 306.15711426 258.91589355 306.78540039 259.67749023 C307.97961745 261.12503093 309.17387096 262.57254157 310.36816406 264.02001953 C314.61380512 269.17144816 318.8318724 274.34548636 323.0546875 279.515625 C327.69063373 285.187442 332.34167208 290.84655708 337 296.5 C342.34685204 302.98905001 347.68056318 309.48844833 353 316 C355.25094573 318.7515939 357.50232088 321.50283574 359.75390625 324.25390625 C361.2420221 326.07328962 362.72901612 327.89359119 364.21484375 329.71484375 C364.94832031 330.61332031 365.68179688 331.51179688 366.4375 332.4375 C367.16582031 333.3346875 367.89414063 334.231875 368.64453125 335.15625 C370.34455374 337.2086818 372.06247721 339.22103427 373.82421875 341.21875 C374.29093994 341.7557251 374.75766113 342.2927002 375.23852539 342.84594727 C376.55918016 344.36194453 377.89255642 345.86683163 379.2265625 347.37109375 C381 350 381 350 380.78637695 351.9934082 C379.43156367 355.45047445 376.36718042 357.45519526 373.5625 359.75 C372.92723389 360.28149658 372.29196777 360.81299316 371.63745117 361.3605957 C367.28010611 364.99199157 362.87085074 368.55965399 358.421875 372.078125 C353.90338259 375.66376736 349.45931292 379.34123694 345 383 C343.16689838 384.50028317 341.33356573 386.00028408 339.5 387.5 C338.12714844 388.62341797 338.12714844 388.62341797 336.7265625 389.76953125 C334.97182216 391.20499935 333.21664845 392.63993796 331.4609375 394.07421875 C325.7965921 398.70323818 320.14559447 403.34813906 314.5 408 C308.01095255 413.34684992 301.51196236 418.68106891 295 424 C286.47102766 430.96492117 286.47102766 430.96492117 278 438 C283.43620417 446.86254412 289.3898761 455.31442356 295.41943359 463.77832031 C297.95675231 467.34483257 300.47777044 470.92280936 303 474.5 C303.99991687 475.91672535 304.99991699 477.33339193 306 478.75 C335.99999999 521.24999998 335.99999999 521.24999998 337.50048828 523.37573242 C338.49880954 524.78999378 339.4971818 526.20421914 340.49560547 527.6184082 C343.02171322 531.19658007 345.54688502 534.77540608 348.0703125 538.35546875 C354.34832149 547.25997132 360.65539437 556.14281824 367 565 C373.30542516 563.01569276 379.34877322 560.666388 385.39453125 558 C386.28355133 557.61182098 387.17257141 557.22364197 388.08853149 556.82369995 C390.00140261 555.98798237 391.91351136 555.150518 393.82492065 554.3114624 C397.90616611 552.51991167 401.99105717 550.73674541 406.07575989 548.95309448 C408.19784426 548.0263782 410.31973978 547.09922932 412.44145203 546.17166138 C425.26893501 540.5655405 438.12447951 535.02458376 450.98168945 529.48706055 C458.57446091 526.21554841 466.16404737 522.93967028 473.72265625 519.58984375 C474.81199463 519.10854004 475.90133301 518.62723633 477.02368164 518.13134766 C478.92286449 517.28979358 480.81947918 516.44240311 482.71264648 515.58740234 C483.90676147 515.05880615 483.90676147 515.05880615 485.125 514.51953125 C486.11886719 514.07250854 486.11886719 514.07250854 487.1328125 513.61645508 C489 513 489 513 493 513 C499.67067457 525.789981 506.33613561 538.57875761 512.75 551.5 C516.04126353 558.13016611 519.40048259 564.71400018 522.875 571.25 C527.46429451 579.88303432 531.82673023 588.62235785 536.17871094 597.37695312 C539.41743409 603.87730142 542.71755744 610.33659603 546.125 616.75 C549.8499823 623.79325342 553.55390343 630.84659371 557.1875 637.9375 C557.6820166 638.88012695 558.1765332 639.82275391 558.68603516 640.79394531 C559.13382324 641.6753418 559.58161133 642.55673828 560.04296875 643.46484375 C560.64661255 644.63454712 560.64661255 644.63454712 561.26245117 645.82788086 C562.14761876 648.43474481 562.17331758 649.51144683 561 652 C559.15600586 653.42529297 559.15600586 653.42529297 556.71484375 654.7421875 C555.80436279 655.24347168 554.89388184 655.74475586 553.95581055 656.26123047 C552.95976807 656.79377441 551.96372559 657.32631836 550.9375 657.875 C548.81678833 659.03999349 546.69702468 660.20671409 544.578125 661.375 C543.48435547 661.97441406 542.39058594 662.57382812 541.26367188 663.19140625 C536.18958279 666.00325933 531.18869621 668.93603263 526.1875 671.875 C517.84944146 676.7573897 509.49634417 681.61238944 501.125 686.4375 C500.04645752 687.05923096 498.96791504 687.68096191 497.85668945 688.3215332 C493.47454164 690.84692169 489.09174963 693.37119109 484.70898438 695.89550781 C469.11028259 704.88121273 453.54009643 713.91333809 438 723 C440.12876337 731.37434222 442.81826545 739.47271832 445.7265625 747.60546875 C446.19216744 748.91670368 446.65740858 750.22806783 447.12231445 751.53955078 C448.3624202 755.03484351 449.60732008 758.52841035 450.85315704 762.02166367 C452.15032459 765.66159144 453.44291119 769.30314494 454.73583984 772.94458008 C456.82449188 778.8257473 458.91540751 784.70610456 461.0078125 790.5859375 C463.72091369 798.21093821 466.4252413 805.83901344 469.125 813.46875 C469.51392426 814.56786209 469.90284851 815.66697418 470.30355835 816.7993927 C471.05322906 818.91821657 471.80285428 821.03705654 472.5524292 823.15591431 C473.92103988 827.02424689 475.29023151 830.89237314 476.6602478 834.76020813 C477.27409525 836.49337938 477.88757712 838.22668017 478.50064087 839.96012878 C479.84298476 843.75233684 481.19268609 847.54143355 482.56542969 851.32275391 C482.8031308 851.97963699 483.04083191 852.63652008 483.28573608 853.31330872 C483.90970226 855.03445419 484.53744649 856.75422874 485.16552734 858.47387695 C486 861 486 861 486 863 C486.66131204 862.95361641 487.32262407 862.90723282 488.00397587 862.85944366 C504.15678925 861.72686753 520.30999616 860.60009424 536.46365452 859.47963715 C544.27569177 858.93763722 552.08758744 858.39373348 559.89916992 857.84521484 C566.71429693 857.36667094 573.52967084 856.89183452 580.34535545 856.4212966 C583.94822344 856.17243752 587.55094876 855.92182699 591.15338326 855.66676331 C595.19244903 855.380855 599.23204615 855.10323234 603.27172852 854.82617188 C605.02825493 854.6999369 605.02825493 854.6999369 606.82026672 854.57115173 C615.23071243 854.00394563 623.57448992 853.91255682 632 854 C635.00600322 871.21890724 638.00524688 888.43897636 640.99648285 905.66045475 C642.38556946 913.65692852 643.77685244 921.65300843 645.17333984 929.64819336 C646.39072799 936.61803035 647.60396104 943.58857571 648.81224203 950.5599975 C649.45196391 954.25014552 650.09373899 957.93990939 650.74049377 961.62883186 C651.46299203 965.75023342 652.17620769 969.8731899 652.88867188 973.99633789 C653.21127235 975.82405983 653.21127235 975.82405983 653.54039001 977.68870544 C654.4850969 983.19854928 655.27463206 988.40722981 655 994 C653.74165848 994.30574448 652.48331696 994.61148895 651.18684387 994.92649841 C639.14583326 997.85215942 627.10483488 1000.77787077 615.06384754 1003.70362759 C608.87810147 1005.20665794 602.69235154 1006.70967242 596.5065918 1008.21264648 C568.0035135 1015.13814436 539.50075576 1022.06494947 511 1029 C511.02505615 1030.18966873 511.0501123 1031.37933746 511.07592773 1032.60505676 C511.31694504 1044.08237008 511.55214222 1055.55979149 511.78230286 1067.03732777 C511.90066434 1072.93127649 512.02075208 1078.82517702 512.14550781 1084.71899414 C512.8444191 1117.81726416 513.13803884 1150.89443655 513 1184 C514.04188477 1183.96592041 515.08376953 1183.93184082 516.15722656 1183.89672852 C522.32502743 1183.90355466 528.38179523 1184.83212947 534.484375 1185.65234375 C535.83523315 1185.83012568 537.18615147 1186.0074509 538.53712463 1186.18435669 C542.18385115 1186.66318848 545.82970817 1187.14836323 549.47543716 1187.63472366 C553.29327437 1188.14293155 557.11188723 1188.64524289 560.93041992 1189.14819336 C568.15202209 1190.10027699 575.3729162 1191.05762387 582.59356785 1192.01688671 C590.81796552 1193.10923452 599.04313982 1194.19567748 607.26838303 1195.28163719 C624.17979168 1197.51454506 641.09021538 1199.75482713 658 1202 C658.27249062 1233.17149331 657.48362019 1264.29769335 656.60931396 1295.45532227 C656.42453959 1302.08078874 656.24576428 1308.70641634 656.06640625 1315.33203125 C655.71663711 1328.22151424 655.36069345 1341.1108183 655 1354 C651.07433796 1355.83764327 647.98500453 1356.24768912 643.66618347 1356.24050903 C642.38877289 1356.24325836 641.1113623 1356.24600769 639.79524231 1356.24884033 C638.38717557 1356.24176295 636.97910978 1356.23449334 635.57104492 1356.22705078 C634.08264168 1356.2264864 632.59423788 1356.22680375 631.10583496 1356.22793579 C627.07108685 1356.22850926 623.03645781 1356.21675581 619.00173736 1356.20278788 C614.78300948 1356.19027966 610.56427883 1356.18910994 606.34553528 1356.18673706 C598.35937486 1356.18052256 590.37326924 1356.16411215 582.38713294 1356.14403808 C573.29409008 1356.12167815 564.2010446 1356.11068541 555.10798109 1356.10064721 C536.40528966 1356.0797459 517.70264924 1356.0445705 499 1356 C498.88048981 1357.26580902 498.76097961 1358.53161804 498.6378479 1359.83578491 C498.04005662 1365.18574451 496.95744124 1370.37557016 495.79443359 1375.62744141 C495.57144592 1376.65185333 495.34845825 1377.67626526 495.11871338 1378.73171997 C494.38304209 1382.10598381 493.64081616 1385.47876859 492.8984375 1388.8515625 C492.37817847 1391.23058076 491.85829804 1393.60968185 491.33877563 1395.98886108 C490.24701589 1400.98423435 489.15229856 1405.97894643 488.05517578 1410.97314453 C486.66966765 1417.28010137 485.28890911 1423.58808428 483.91007614 1429.89650345 C478.36082387 1455.2840375 472.79349166 1480.66689676 467 1506 C467.57898544 1506.1658963 468.15797089 1506.3317926 468.75450134 1506.50271606 C475.70627468 1508.5366311 482.50758513 1510.90089301 489.31640625 1513.3671875 C491.09574303 1514.00838531 491.09574303 1514.00838531 492.911026 1514.66253662 C496.12815361 1515.82224657 499.34394046 1516.98563101 502.55939484 1518.14997101 C504.57134594 1518.87820181 506.58367612 1519.60537524 508.59613037 1520.33221436 C534.64690139 1529.74188977 560.64590744 1539.2907059 586.62110901 1548.90692139 C593.07253811 1551.29406729 599.53284426 1553.65579505 606 1556 C605.41255249 1561.79099196 604.28277255 1567.08715854 602.61425781 1572.65527344 C602.37164719 1573.48309326 602.12903656 1574.31091309 601.8790741 1575.16381836 C601.0763196 1577.89744515 600.26476494 1580.62837448 599.453125 1583.359375 C598.87981271 1585.30503767 598.30704987 1587.25086231 597.73480225 1589.19683838 C596.21967752 1594.3436376 594.69708679 1599.4881988 593.1729126 1604.63232422 C591.67462228 1609.69367396 590.18328347 1614.75706953 588.69140625 1619.8203125 C586.03279279 1628.83935042 583.3681391 1637.85658894 580.70024872 1646.87288666 C577.62546377 1657.26442763 574.55532647 1667.65734002 571.48534393 1678.0503006 C570.10470577 1682.72402803 568.72374819 1687.39766107 567.34277344 1692.07128906 C566.98414845 1693.28500057 566.98414845 1693.28500057 566.6182785 1694.52323151 C566.07885621 1696.34882215 565.53942877 1698.17441127 565 1700 C559.77889942 1699.50841656 554.79821095 1698.85379457 549.72680664 1697.4597168 C548.56223938 1697.14324188 547.39767212 1696.82676697 546.19781494 1696.5007019 C544.94788757 1696.15371246 543.69796021 1695.80672302 542.41015625 1695.44921875 C541.05507946 1695.07841528 539.69982929 1694.70824489 538.34442139 1694.33865356 C535.43620108 1693.54434295 532.52915222 1692.74592623 529.62295532 1691.94424438 C525.01515476 1690.67335681 520.40469097 1689.41233627 515.79370117 1688.15307617 C510.10608499 1686.59922056 504.41897518 1685.04354083 498.7325716 1683.48525333 C483.24960362 1679.24271934 467.75879765 1675.0291463 452.26344204 1670.83209324 C447.31615883 1669.4919642 442.36993883 1668.14800419 437.42454338 1666.80092621 C434.34675996 1665.96336349 431.26812705 1665.12895883 428.18924713 1664.29543686 C426.75601383 1663.90675808 425.32312935 1663.51679048 423.89061737 1663.12546158 C421.93559646 1662.59162483 419.97918603 1662.06288452 418.02270508 1661.53442383 C416.9258992 1661.23643387 415.82909332 1660.93844391 414.6990509 1660.63142395 C411.97513277 1659.88610374 411.97513277 1659.88610374 409 1660 C408.72438232 1660.58152832 408.44876465 1661.16305664 408.16479492 1661.76220703 C403.04139766 1672.55820102 397.87541514 1683.32689124 392.5 1694 C388.74375767 1701.45902454 385.08344338 1708.95644448 381.5 1716.5 C377.480433 1724.9616453 373.34272955 1733.35505006 369.12939453 1741.72167969 C365.31912418 1749.30966558 361.64372916 1756.95757355 358.01074219 1764.63183594 C355.82535619 1769.23556785 353.60488053 1773.81197609 351.2734375 1778.34375 C350.84756348 1779.17422852 350.42168945 1780.00470703 349.98291016 1780.86035156 C349.18146 1782.41373653 348.37167061 1783.96285709 347.55224609 1785.50683594 C346.62703462 1787.30141621 345.80349853 1789.14772445 345 1791 C346.10841514 1794.32524542 346.65163163 1794.74479055 349.40234375 1796.6796875 C350.47633423 1797.44430298 350.47633423 1797.44430298 351.57202148 1798.22436523 C352.35262939 1798.76907471 353.1332373 1799.31378418 353.9375 1799.875 C355.5938656 1801.0506184 357.25011239 1802.2264042 358.90625 1803.40234375 C359.75574219 1804.00159668 360.60523437 1804.60084961 361.48046875 1805.21826172 C365.31818055 1807.93217845 369.12848685 1810.683518 372.9375 1813.4375 C373.67605225 1813.97036621 374.41460449 1814.50323242 375.17553711 1815.05224609 C381.44628675 1819.58258982 387.6727014 1824.1717719 393.89428711 1828.76928711 C399.23835616 1832.71407041 404.60901545 1836.61962408 410 1840.5 C416.99703598 1845.53639542 423.94634715 1850.63417532 430.87915039 1855.75854492 C436.37215741 1859.81378121 441.89549967 1863.82453425 447.4375 1867.8125 C454.35651112 1872.79151007 461.20937927 1877.84711721 468 1883 C467.39295849 1886.09928651 466.41654477 1888.12339887 464.55078125 1890.66015625 C464.03966797 1891.36140625 463.52855469 1892.06265625 463.00195312 1892.78515625 C462.44443359 1893.53667969 461.88691406 1894.28820313 461.3125 1895.0625 C460.73306641 1895.85398437 460.15363281 1896.64546875 459.55664062 1897.4609375 C457.71088374 1899.97877987 455.85623758 1902.48987711 454 1905 C452.82654659 1906.59224431 451.6533645 1908.18468861 450.48046875 1909.77734375 C448.73282295 1912.14948165 446.9844425 1914.52105799 445.23364258 1916.89086914 C441.28738001 1922.23571031 437.38125032 1927.60780066 433.5 1933 C428.45992181 1940.00215242 423.35786615 1946.95613256 418.23046875 1953.89453125 C414.28584516 1959.23857784 410.38038689 1964.60916262 406.5 1970 C401.89057611 1976.40209558 397.24317092 1982.77479041 392.5625 1989.125 C391.9953125 1989.89457031 391.428125 1990.66414063 390.84375 1991.45703125 C387.25224598 1996.32211826 383.63536832 2001.16761016 380 2006 C376.3909582 2005.43982695 373.86918303 2004.54536603 370.8125 2002.55859375 C370.03688721 2002.06069336 369.26127441 2001.56279297 368.4621582 2001.04980469 C367.649646 2000.51774414 366.83713379 1999.98568359 366 1999.4375 C364.30638837 1998.34703664 362.61237585 1997.25719566 360.91796875 1996.16796875 C360.08700684 1995.63091309 359.25604492 1995.09385742 358.39990234 1994.54052734 C355.0642911 1992.39935675 351.6943229 1990.31714092 348.3125 1988.25 C347.36270264 1987.66887451 346.41290527 1987.08774902 345.43432617 1986.48901367 C344.63099854 1985.99763916 343.8276709 1985.50626465 343 1985 C346.61419451 1994.7928446 350.69855492 2004.3305132 354.92532349 2013.87042236 C356.92562773 2018.38593621 358.91519954 2022.90618141 360.90625 2027.42578125 C361.32270279 2028.3704425 361.73915558 2029.31510376 362.16822815 2030.28839111 C366.83659077 2040.88453752 371.45100243 2051.50401272 376.0625 2062.125 C376.90800613 2064.07162945 377.7535465 2066.01824404 378.59912109 2067.96484375 C379.85416776 2070.85409325 381.10920763 2073.74334566 382.36410522 2076.63265991 C386.46395453 2086.07107354 390.57440186 2095.50485392 394.6875 2104.9375 C395.03389526 2105.7319754 395.38029053 2106.52645081 395.73718262 2107.34500122 C398.15780278 2112.89680659 400.57883644 2118.44843158 403 2124 C405.77113694 2130.35403431 408.54206794 2136.70815832 411.3125 2143.0625 C411.65856293 2143.85623016 412.00462585 2144.64996033 412.36117554 2145.46774292 C418.67738695 2159.95578724 424.97986908 2174.44978486 431.27993774 2188.94485474 C437.0122222 2202.13328414 442.75136979 2215.31868747 448.5 2228.5 C454.67650129 2242.66239883 460.84117679 2256.82990479 467 2271 C473.22219223 2285.31554504 479.4490664 2299.62902449 485.6875 2313.9375 C486.03380463 2314.73179413 486.38010925 2315.52608826 486.73690796 2316.3444519 C489.15761742 2321.89644136 491.57875472 2327.4482442 494 2333 C496.77113694 2339.35403431 499.54206794 2345.70815832 502.3125 2352.0625 C502.65856293 2352.85623016 503.00462585 2353.64996033 503.36117554 2354.46774292 C509.67738695 2368.95578724 515.97986908 2383.44978486 522.27993774 2397.94485474 C528.0122222 2411.13328414 533.75136979 2424.31868747 539.5 2437.5 C545.67650129 2451.66239883 551.84117679 2465.82990479 558 2480 C564.22219223 2494.31554504 570.4490664 2508.62902449 576.6875 2522.9375 C577.03380463 2523.73179413 577.38010925 2524.52608826 577.73690796 2525.3444519 C580.15761742 2530.89644136 582.57875472 2536.4482442 585 2542 C587.77113694 2548.35403431 590.54206794 2554.70815832 593.3125 2561.0625 C593.65856293 2561.85623016 594.00462585 2562.64996033 594.36117554 2563.46774292 C600.67738695 2577.95578724 606.97986908 2592.44978486 613.27993774 2606.94485474 C619.0122222 2620.13328414 624.75136979 2633.31868747 630.5 2646.5 C636.67650129 2660.66239883 642.84117679 2674.82990479 649 2689 C655.22219223 2703.31554504 661.4490664 2717.62902449 667.6875 2731.9375 C668.03380463 2732.73179413 668.38010925 2733.52608826 668.73690796 2734.3444519 C671.15761742 2739.89644136 673.57875472 2745.4482442 676 2751 C678.77113694 2757.35403431 681.54206794 2763.70815832 684.3125 2770.0625 C684.65856293 2770.85623016 685.00462585 2771.64996033 685.36117554 2772.46774292 C691.67738695 2786.95578724 697.97986908 2801.44978486 704.27993774 2815.94485474 C710.0122222 2829.13328414 715.75136979 2842.31868747 721.5 2855.5 C727.67650129 2869.66239883 733.84117679 2883.82990479 740 2898 C746.22219223 2912.31554504 752.4490664 2926.62902449 758.6875 2940.9375 C759.03380463 2941.73179413 759.38010925 2942.52608826 759.73690796 2943.3444519 C762.15761742 2948.89644136 764.57875472 2954.4482442 767 2960 C769.77113694 2966.35403431 772.5420192 2972.70817957 775.3125 2979.0625 C775.82511383 2980.23814011 775.82511383 2980.23814011 776.3480835 2981.43753052 C780.69619061 2991.41026146 785.03839729 3001.38554203 789.375 3011.36328125 C789.82828171 3012.40615799 790.28156342 3013.44903473 790.74858093 3014.52351379 C792.96686396 3019.62747329 795.18461489 3024.73166316 797.40161133 3029.83618164 C798.21174415 3031.7006867 799.02188379 3033.5651888 799.83203125 3035.4296875 C800.19486206 3036.26554886 800.55769287 3037.10141022 800.93151855 3037.96260071 C801.45038635 3039.15649666 801.45038635 3039.15649666 801.97973633 3040.37451172 C802.31075348 3041.13842224 802.64177063 3041.90233276 802.9828186 3042.68939209 C803.68994348 3044.29568213 804.41280162 3045.89510047 805.14779663 3047.48883057 C805.5149881 3048.28802917 805.88217957 3049.08722778 806.26049805 3049.91064453 C806.59413864 3050.62479523 806.92777924 3051.33894592 807.27153015 3052.07473755 C808 3054 808 3054 808 3057 C800.39002074 3056.43667101 793.092525 3055.1014599 785.64550781 3053.46923828 C784.43893807 3053.20946135 783.23236834 3052.94968441 781.98923588 3052.68203545 C778.67337849 3051.96701946 775.35865303 3051.2471162 772.04431748 3050.52510071 C768.48406144 3049.7508236 764.92239802 3048.98307295 761.36088562 3048.21459961 C755.21762079 3046.88819988 749.0751946 3045.55797618 742.93331909 3044.22515869 C733.10859387 3042.09325933 723.2821095 3039.96953949 713.45532227 3037.84716797 C710.1105439 3037.12469222 706.7657737 3036.40217864 703.42100525 3035.67965698 C702.59075366 3035.50031762 701.76050207 3035.32097825 700.90509135 3035.13620436 C694.98725494 3033.85782835 689.06963995 3032.57843076 683.15211487 3031.2986145 C655.85912023 3025.39622322 628.55794156 3019.53280056 601.2520752 3013.69021606 C589.26238155 3011.12479384 577.27328315 3008.55659176 565.28416967 3005.98845983 C563.2709332 3005.5572206 561.25769185 3005.12600413 559.24444962 3004.69479179 C536.33237354 2999.78721736 513.42145689 2994.87424338 490.51108354 2989.95872635 C484.32217467 2988.63087896 478.13321056 2987.30328947 471.94420594 2985.97588843 C451.01801187 2981.4875487 430.0929026 2976.9942833 409.17121279 2972.48498976 C401.06074587 2970.73710573 392.94998614 2968.99058133 384.83909822 2967.24465203 C382.84955843 2966.81638863 380.86002959 2966.38807437 378.87051177 2965.95970893 C355.32333183 2960.89030603 331.76739261 2955.87509613 308.16989827 2951.04490942 C300.17259076 2949.40748282 292.18014688 2947.74657868 284.18789291 2946.08468723 C277.78926608 2944.7574495 271.38468972 2943.46744502 264.97238731 2942.20802689 C261.19665169 2941.45792202 257.4286057 2940.6739261 253.66200638 2939.87933731 C251.98020943 2939.53222719 250.29529493 2939.19980555 248.60731125 2938.88415146 C236.45130718 2936.60433326 236.45130718 2936.60433326 233.05821228 2932.85346985 C231.71677651 2930.26968208 230.83825938 2927.78479439 230 2925 C229.31015183 2923.37335645 228.60417219 2921.75345796 227.88208008 2920.14086914 C227.17426006 2918.44047428 226.47023088 2916.73849764 225.76953125 2915.03515625 C225.38181046 2914.10124054 224.99408966 2913.16732483 224.59461975 2912.20510864 C223.33069345 2909.15889587 222.07166369 2906.11068409 220.8125 2903.0625 C219.92051242 2900.91103679 219.02809026 2898.7597537 218.13525391 2896.60864258 C216.76432465 2893.30557661 215.39363017 2890.00241584 214.02423096 2886.69871521 C209.66582066 2876.18461653 205.27421064 2865.68457813 200.875 2855.1875 C200.13382536 2853.41806901 199.39269589 2851.64861911 198.65161133 2849.87915039 C197.17384814 2846.35083486 195.69588592 2842.82260281 194.21777344 2839.29443359 C190.85247992 2831.26118222 187.48986792 2823.22680831 184.12701416 2815.1925354 C182.25144886 2810.71164586 180.37571609 2806.23082642 178.5 2801.75 C177.74999919 2799.95833367 176.99999919 2798.166667 176.25 2796.375 C175.87875 2795.488125 175.5075 2794.60125 175.125 2793.6875 C138 2705 100.875 2616.3125 -26.25 2312.625 C-26.62118958 2311.73827103 -26.99237915 2310.85154205 -27.37481689 2309.9379425 C-28.12543208 2308.14480284 -28.87604242 2306.35166116 -29.62664795 2304.55851746 C-31.49219617 2300.10187106 -33.35782621 2295.64525894 -35.22363281 2291.1887207 C-38.71130431 2282.85806471 -42.19816736 2274.52707306 -45.68225098 2266.19491577 C-47.31243471 2262.29648107 -48.94306643 2258.39823382 -50.57373047 2254.5 C-51.34446116 2252.657157 -52.1149769 2250.81422408 -52.88525391 2248.97119141 C-57.20880337 2238.6264438 -61.5592066 2228.29504851 -66 2218 C-73.82603506 2222.88645767 -81.44779217 2228.01416954 -89 2233.3125 C-91.02069531 2234.72545782 -93.04152247 2236.13822712 -95.0625 2237.55078125 C-95.94035156 2238.16606689 -96.81820313 2238.78135254 -97.72265625 2239.4152832 C-99.4681938 2240.62993631 -101.23059003 2241.82039335 -103 2243 C-101.02448509 2249.31354122 -98.65355115 2255.32647286 -95.9296875 2261.3515625 C-95.3395562 2262.67148949 -95.3395562 2262.67148949 -94.73750305 2264.01808167 C-93.89297426 2265.90619251 -93.04661446 2267.79348525 -92.19857788 2269.68002319 C-89.92928264 2274.72923256 -87.67426389 2279.78481507 -85.41796875 2284.83984375 C-84.73082542 2286.37808556 -84.73082542 2286.37808556 -84.02980042 2287.94740295 C-78.98657444 2299.24839674 -74.04755892 2310.59402419 -69.12280273 2321.94702148 C-65.65753703 2329.93053932 -62.16358852 2337.8993778 -58.609375 2345.84375 C-57.90072861 2347.43201678 -57.19214988 2349.02031375 -56.48364258 2350.60864258 C-55.15288411 2353.59129843 -53.81284729 2356.56954249 -52.4675293 2359.5456543 C-51.87251529 2360.87792779 -51.27784964 2362.21035693 -50.68359375 2363.54296875 C-50.16337646 2364.69821045 -49.64315918 2365.85345215 -49.10717773 2367.04370117 C-48 2370 -48 2370 -48 2374 C-64.87200544 2382.2400019 -81.76430621 2390.41403199 -98.81738281 2398.27416992 C-107.86732456 2402.45270376 -116.84897441 2406.76238836 -125.81958008 2411.1081543 C-135.34456199 2415.71120943 -144.92892556 2420.17786659 -154.5390625 2424.59960938 C-156.17681641 2425.35467773 -156.17681641 2425.35467773 -157.84765625 2426.125 C-158.88937988 2426.60324219 -159.93110352 2427.08148437 -161.00439453 2427.57421875 C-164.67098416 2429.31936002 -168.23565499 2431.23226895 -171.77905273 2433.21484375 C-174.63333049 2434.22389698 -176.16067495 2434.00280063 -179 2433 C-180.4152832 2431.5390625 -180.4152832 2431.5390625 -181.55078125 2429.625 C-181.99325195 2428.90038574 -182.43572266 2428.17577148 -182.89160156 2427.42919922 C-183.36049805 2426.62756348 -183.82939453 2425.82592773 -184.3125 2425 C-185.37490363 2423.25175357 -186.43878116 2421.50440221 -187.50390625 2419.7578125 C-188.06867676 2418.82227539 -188.63344727 2417.88673828 -189.21533203 2416.92285156 C-192.31039783 2411.85388744 -195.53632628 2406.86927022 -198.75 2401.875 C-200.12015468 2399.73721179 -201.4899425 2397.59918841 -202.859375 2395.4609375 C-203.54451172 2394.39198242 -204.22964844 2393.32302734 -204.93554688 2392.22167969 C-208.29272921 2386.98263308 -211.64623503 2381.74123461 -215 2376.5 C-219.02246543 2370.21422079 -223.04540557 2363.92874747 -227.0703125 2357.64453125 C-234.2847567 2346.37877929 -241.48801266 2335.10615385 -248.66064453 2323.8137207 C-249.20317871 2322.9599585 -249.74571289 2322.10619629 -250.3046875 2321.2265625 C-250.77890137 2320.47971191 -251.25311523 2319.73286133 -251.74169922 2318.96337891 C-252.8095886 2317.2971068 -253.90219093 2315.64671361 -255 2314 C-264.0703057 2315.54149069 -272.82842279 2318.13787989 -281.6484375 2320.69921875 C-283.28757248 2321.17200315 -284.92681144 2321.64442715 -286.56614685 2322.11651611 C-290.03962859 2323.1176197 -293.51236721 2324.1212458 -296.98452759 2325.12692261 C-302.39688271 2326.6945075 -307.8109959 2328.25595786 -313.2253418 2329.81665039 C-328.10961143 2334.10864077 -342.98996579 2338.41411061 -357.86639404 2342.73320007 C-362.73872345 2344.14776949 -367.61185605 2345.55956646 -372.48492432 2346.97158813 C-375.75899944 2347.92197013 -379.03164232 2348.87716904 -382.30419922 2349.83276367 C-384.25092317 2350.39780769 -386.19769703 2350.96267978 -388.14453125 2351.52734375 C-389.01250839 2351.78243713 -389.88048553 2352.03753052 -390.77476501 2352.300354 C-393.93555699 2353.21335239 -396.69185646 2354 -400 2354 C-399.87631042 2355.0143427 -399.87631042 2355.0143427 -399.75012207 2356.04917717 C-397.74041633 2372.5336294 -395.73734533 2389.01887305 -393.74157715 2405.50501823 C-392.77626491 2413.47770067 -391.80874194 2421.45010298 -390.8359375 2429.421875 C-389.98765435 2436.37328852 -389.14359741 2443.3252002 -388.30452728 2450.27773201 C-387.86045606 2453.95608292 -387.41432986 2457.63415724 -386.96313477 2461.31164169 C-386.45847177 2465.42557526 -385.96325108 2469.54059429 -385.46875 2473.65576172 C-385.31913818 2474.86345718 -385.16952637 2476.07115265 -385.01538086 2477.31544495 C-384.23109892 2483.91487123 -383.80029301 2490.35402537 -384 2497 C-402.35809191 2499.48452942 -420.71709271 2501.96223376 -439.07719326 2504.43187714 C-447.60260057 2505.5788028 -456.12769916 2506.72793697 -464.65209961 2507.88232422 C-472.08431117 2508.88879983 -479.51707492 2509.89107698 -486.95052391 2510.88837385 C-490.88430566 2511.41629108 -494.81778451 2511.94626758 -498.75060844 2512.48127747 C-502.45740039 2512.98547098 -506.16490928 2513.48401876 -509.87302589 2513.97837257 C-511.87212636 2514.24634361 -513.87043765 2514.52018186 -515.86871338 2514.79423523 C-522.31146506 2515.64745862 -528.50098659 2516.19562623 -535 2516 C-538.78612429 2498.46834329 -542.56755622 2480.93568143 -546.34339142 2463.40180588 C-548.09665074 2455.26071436 -549.85144913 2447.11996028 -551.60986328 2438.97998047 C-553.14233286 2431.88591532 -554.67192251 2424.79123647 -556.1980443 2417.69580293 C-557.00635451 2413.93819813 -557.81611214 2410.18091838 -558.62931824 2406.42436981 C-559.39455057 2402.88921291 -560.15593197 2399.35324872 -560.91435814 2395.8166256 C-561.3266835 2393.89880657 -561.7430961 2391.98186773 -562.15962219 2390.06495667 C-562.52563789 2388.35284248 -562.52563789 2388.35284248 -562.89904785 2386.60614014 C-563.11290382 2385.61429089 -563.3267598 2384.62244164 -563.54709625 2383.60053635 C-564 2381 -564 2381 -564 2377 C-564.68800249 2377.05153732 -565.37600498 2377.10307465 -566.08485603 2377.15617371 C-582.87987209 2378.41390489 -599.67530776 2379.66586231 -616.47122383 2380.91151428 C-624.59382037 2381.51405614 -632.71626665 2382.11850109 -640.83837891 2382.72753906 C-647.92339312 2383.25880508 -655.00867086 2383.78638551 -662.09427917 2384.30967045 C-665.84076799 2384.58648135 -669.58710628 2384.86504863 -673.3331337 2385.14804077 C-676.87039711 2385.41520309 -680.40799739 2385.67737756 -683.94589615 2385.93598557 C-685.83998192 2386.07566784 -687.73369274 2386.22040692 -689.62738037 2386.36538696 C-697.76440483 2386.9538016 -705.84292258 2387.10252205 -714 2387 C-714.06280498 2388.41523201 -714.06280498 2388.41523201 -714.12687874 2389.85905457 C-714.77446015 2403.52066315 -716.64120854 2417.03653962 -718.37890625 2430.59375 C-718.71422052 2433.23883703 -719.0491367 2435.88397146 -719.38352966 2438.5291748 C-720.16923686 2444.73757849 -720.96003522 2450.94532209 -721.75275797 2457.15283346 C-722.65642766 2464.23115706 -723.55427746 2471.31021523 -724.45168793 2478.38933468 C-726.29474282 2492.92703693 -728.14494613 2507.46382385 -730 2522 C-733.84939602 2522.90103773 -737.41551587 2523.12564814 -741.36505127 2523.12698364 C-742.64943085 2523.12980347 -743.93381042 2523.13262329 -745.2571106 2523.13552856 C-746.67303481 2523.13358447 -748.08895888 2523.13153631 -749.50488281 2523.12939453 C-751.00151614 2523.13075007 -752.49814913 2523.13253087 -753.99478149 2523.13470459 C-758.05228273 2523.13925914 -762.1097585 2523.1374979 -766.16726017 2523.1343255 C-770.41088492 2523.13179358 -774.65450749 2523.13414159 -778.89813232 2523.13571167 C-786.01998283 2523.13753013 -793.14182295 2523.13513469 -800.26367188 2523.13037109 C-808.50768908 2523.12492074 -816.75168159 2523.12669803 -824.99569821 2523.1321975 C-832.06921897 2523.13672788 -839.14273226 2523.1373798 -846.216254 2523.13475883 C-850.44327878 2523.13319671 -854.67029193 2523.13300068 -858.89731598 2523.13629532 C-862.8666691 2523.13917322 -866.83599017 2523.13719987 -870.80533981 2523.13140106 C-872.26590039 2523.13007338 -873.72646364 2523.13046771 -875.18702316 2523.13266373 C-877.17230893 2523.13537468 -879.15760056 2523.1313809 -881.1428833 2523.12698364 C-882.81310987 2523.1264181 -882.81310987 2523.1264181 -884.5170784 2523.12584114 C-887 2523 -887 2523 -888 2522 C-888.16010481 2519.26298822 -888.25946828 2516.5483241 -888.31640625 2513.80859375 C-888.33718735 2512.98875504 -888.35796844 2512.16891632 -888.37937927 2511.32423401 C-888.44496494 2508.69541099 -888.50380126 2506.06648496 -888.5625 2503.4375 C-888.60567667 2501.65949439 -888.64929067 2499.88149935 -888.69335938 2498.10351562 C-888.80065543 2493.73578366 -888.90189704 2489.36794773 -889 2485 C-889.19806244 2485.52203506 -889.39612488 2486.04407013 -889.60018921 2486.58192444 C-898.66117534 2510.46217351 -907.73242722 2534.33834829 -916.875 2558.1875 C-923.36612247 2575.12044913 -929.84542581 2592.05785028 -936.3125 2609 C-936.75076111 2610.1481015 -937.18902222 2611.296203 -937.64056396 2612.47909546 C-939.86940455 2618.31804075 -942.09807548 2624.15705078 -944.32666016 2629.99609375 C-948.28029142 2640.35462568 -952.23545799 2650.7125714 -956.19052124 2661.07055664 C-958.37707823 2666.7970133 -960.56353395 2672.52350862 -962.75 2678.25 C-963.62499952 2680.54166685 -964.49999952 2682.83333352 -965.375 2685.125 C-965.808125 2686.259375 -966.24125 2687.39375 -966.6875 2688.5625 C-991.62500014 2753.87500037 -991.62500014 2753.87500037 -992.93743896 2757.31233215 C-993.81264952 2759.6045556 -994.68785297 2761.89678175 -995.56304932 2764.18901062 C-997.74726968 2769.90968083 -999.93161251 2775.63030423 -1002.11621094 2781.35083008 C-1005.64214278 2790.58405677 -1009.16806365 2799.81728583 -1012.68945312 2809.05224609 C-1013.13512634 2810.22103302 -1013.58079956 2811.38981995 -1014.03997803 2812.59402466 C-1014.93947919 2814.95338096 -1015.83877162 2817.31281685 -1016.737854 2819.67233276 C-1018.94479363 2825.46235275 -1021.15665599 2831.25039222 -1023.37988281 2837.03417969 C-1027.19482553 2846.96723581 -1030.98763527 2856.90318363 -1034.61199951 2866.90766907 C-1036.11725156 2871.05457677 -1037.64706592 2875.19219718 -1039.17980957 2879.32901001 C-1039.88536382 2881.25475783 -1040.57863195 2883.18505793 -1041.25866699 2885.1199646 C-1042.18869086 2887.76424317 -1043.15941546 2890.38999465 -1044.140625 2893.015625 C-1044.39928345 2893.78777847 -1044.65794189 2894.55993195 -1044.92443848 2895.35548401 C-1046.05496058 2898.27935963 -1046.91202829 2900.45814055 -1049.80723483 2901.90008523 C-1050.51862758 2902.11252312 -1051.23002033 2902.32496101 -1051.96297044 2902.54383641 C-1052.77033435 2902.78762955 -1053.57769826 2903.03142268 -1054.40952774 2903.28260348 C-1058.87280272 2904.51864757 -1063.3466447 2905.68949514 -1067.84149647 2906.8054533 C-1068.90422786 2907.07230113 -1069.96695925 2907.33914896 -1071.06189463 2907.61408308 C-1074.62204385 2908.50710732 -1078.18342728 2909.39510491 -1081.74482727 2910.28312683 C-1084.3236946 2910.9288869 -1086.90249088 2911.57492485 -1089.48120373 2912.2213009 C-1095.08731405 2913.62591823 -1100.69407476 2915.02791431 -1106.30127335 2916.42818069 C-1114.63913237 2918.51037159 -1122.97597915 2920.59659323 -1131.31263535 2922.68359401 C-1146.20093762 2926.41058565 -1161.09025641 2930.13350302 -1175.98002244 2933.85464198 C-1189.00689044 2937.11021994 -1202.03345455 2940.3670102 -1215.05971336 2943.6250248 C-1216.80663363 2944.06194408 -1218.55355394 2944.49886315 -1220.30047431 2944.93578202 C-1222.93283008 2945.59415726 -1225.56518558 2946.2525336 -1228.19754023 2946.91091331 C-1252.66801987 2953.03120924 -1277.13885086 2959.15009868 -1301.610425 2965.26601696 C-1302.99403967 2965.61180919 -1302.99403967 2965.61180919 -1304.40560616 2965.96458712 C-1311.8964317 2967.83668126 -1319.38726681 2969.70873715 -1326.87810261 2971.5807902 C-1356.11677388 2978.88793076 -1385.35435468 2986.19941966 -1414.59106445 2993.5144043 C-1447.43083988 3001.73086045 -1480.27138815 3009.94421706 -1513.11311501 3018.15287 C-1516.61186728 3019.02737904 -1520.11061709 3019.9018979 -1523.60936546 3020.7764225 C-1524.47086317 3020.99175447 -1525.33236087 3021.20708645 -1526.21996457 3021.42894363 C-1539.24378527 3024.68432224 -1552.2669982 3027.94212437 -1565.28991127 3031.20113182 C-1580.08954739 3034.90476074 -1594.89000067 3038.60510331 -1609.69156299 3042.30102702 C-1617.98099656 3044.37098702 -1626.26976623 3046.4435614 -1634.55761717 3048.51984924 C-1640.08661074 3049.90470763 -1645.61644515 3051.28617105 -1651.1469897 3052.66482236 C-1654.3025173 3053.45153319 -1657.45751499 3054.24026571 -1660.61176554 3055.03208365 C-1664.00268611 3055.88306628 -1667.39498308 3056.72831982 -1670.78770924 3057.57207012 C-1671.77574011 3057.82149047 -1672.76377098 3058.07091081 -1673.78174219 3058.32788935 C-1675.13344541 3058.66215596 -1675.13344541 3058.66215596 -1676.51245576 3059.00317544 C-1677.28847346 3059.19716804 -1678.06449115 3059.39116064 -1678.86402454 3059.5910318 C-1681 3060 -1681 3060 -1685 3060 C-1684.39302248 3056.47426764 -1683.46200804 3053.4157877 -1682.04833984 3050.1328125 C-1681.43767921 3048.7050499 -1681.43767921 3048.7050499 -1680.81468201 3047.2484436 C-1680.36794632 3046.21770721 -1679.92121063 3045.18697083 -1679.4609375 3044.125 C-1678.99248917 3043.03391937 -1678.52404083 3041.94283875 -1678.04139709 3040.81869507 C-1676.75901246 3037.83484021 -1675.47226254 3034.85291553 -1674.18348312 3031.87181854 C-1673.09597037 3029.35398423 -1672.01221274 3026.83454156 -1670.92851925 3024.31506157 C-1663.00508084 3005.89413738 -1655.01724793 2987.50110454 -1647.01846313 2969.11279297 C-1639.12183672 2950.95656208 -1631.33347606 2932.75587977 -1623.58953857 2914.53405762 C-1617.78690253 2900.88025379 -1611.96641541 2887.23533913 -1606.0625 2873.625 C-1599.50112153 2858.49647752 -1592.9930521 2843.34547151 -1586.5 2828.1875 C-1585.99124329 2827.00000153 -1585.48248657 2825.81250305 -1584.95831299 2824.58901978 C-1579.78187699 2812.5062856 -1574.60816319 2800.42238976 -1569.43809509 2788.33692932 C-1566.93879329 2782.49506897 -1564.43846115 2776.65365014 -1561.9375 2770.8125 C-1561.44194611 2769.6550528 -1560.94639221 2768.49760559 -1560.43582153 2767.30508423 C-1552.68401753 2749.20536135 -1544.8603539 2731.13769781 -1537.00509644 2713.08267212 C-1529.26944303 2695.29685518 -1521.64314761 2677.46644567 -1514.06222534 2659.61419678 C-1506.48618052 2641.77800982 -1498.8071908 2623.98884732 -1491.0725708 2606.22091675 C-1483.59355734 2589.03506793 -1476.20609744 2571.81194692 -1468.875 2554.5625 C-1456.94576305 2526.49402394 -1456.94576305 2526.49402394 -1451.5625 2514.125 C-1445.55202691 2500.31398033 -1439.61832185 2486.47038527 -1433.6875 2472.625 C-1433.1734259 2471.4250943 -1432.65935181 2470.2251886 -1432.12969971 2468.98892212 C-1426.89160237 2456.76231311 -1421.65613582 2444.53458144 -1416.42449951 2432.3052063 C-1413.92972749 2426.47392118 -1411.43392888 2420.64307598 -1408.9375 2414.8125 C-1408.19457703 2413.07728088 -1408.19457703 2413.07728088 -1407.43664551 2411.30700684 C-1399.68456671 2393.20664308 -1391.86063209 2375.13833722 -1384.00509644 2357.08267212 C-1376.26944303 2339.29685518 -1368.64314761 2321.46644567 -1361.06222534 2303.61419678 C-1353.95227035 2286.87531925 -1346.75869337 2270.17488872 -1339.5 2253.5 C-1331.60681389 2235.36720969 -1323.79728137 2217.20093491 -1316.0625 2199 C-1309.76904853 2184.19082022 -1303.4659769 2169.38698186 -1297.0625 2154.625 C-1290.50112153 2139.49647752 -1283.9930521 2124.34547151 -1277.5 2109.1875 C-1276.99124329 2108.00000153 -1276.48248657 2106.81250305 -1275.95831299 2105.58901978 C-1270.78187699 2093.5062856 -1265.60816319 2081.42238976 -1260.43809509 2069.33692932 C-1257.93879329 2063.49506897 -1255.43846115 2057.65365014 -1252.9375 2051.8125 C-1252.44194611 2050.6550528 -1251.94639221 2049.49760559 -1251.43582153 2048.30508423 C-1243.68401753 2030.20536135 -1235.8603539 2012.13769781 -1228.00509644 1994.08267212 C-1220.26944303 1976.29685518 -1212.64314761 1958.46644567 -1205.06222534 1940.61419678 C-1197.95227035 1923.87531925 -1190.75869337 1907.17488872 -1183.5 1890.5 C-1175.60681389 1872.36720969 -1167.79728137 1854.20093491 -1160.0625 1836 C-1153.76904853 1821.19082022 -1147.4659769 1806.38698186 -1141.0625 1791.625 C-1134.50112153 1776.49647752 -1127.9930521 1761.34547151 -1121.5 1746.1875 C-1120.99124329 1745.00000153 -1120.48248657 1743.81250305 -1119.95831299 1742.58901978 C-1114.78187699 1730.5062856 -1109.60816319 1718.42238976 -1104.43809509 1706.33692932 C-1101.93879329 1700.49506897 -1099.43846115 1694.65365014 -1096.9375 1688.8125 C-1096.19416916 1687.07632919 -1096.19416916 1687.07632919 -1095.43582153 1685.30508423 C-1087.68401753 1667.20536135 -1079.8603539 1649.13769781 -1072.00509644 1631.08267212 C-1064.26944303 1613.29685518 -1056.64314761 1595.46644567 -1049.06222534 1577.61419678 C-1041.48618052 1559.77800982 -1033.8071908 1541.98884732 -1026.0725708 1524.22091675 C-1018.59355734 1507.03506793 -1011.20609744 1489.81194692 -1003.875 1472.5625 C-991.94576305 1444.49402394 -991.94576305 1444.49402394 -986.5625 1432.125 C-980.55202691 1418.31398033 -974.61832185 1404.47038527 -968.6875 1390.625 C-968.1734259 1389.4250943 -967.65935181 1388.2251886 -967.12969971 1386.98892212 C-961.89160237 1374.76231311 -956.65613582 1362.53458144 -951.42449951 1350.3052063 C-948.92972749 1344.47392118 -946.43392888 1338.64307598 -943.9375 1332.8125 C-943.44221802 1331.65568726 -942.94693604 1330.49887451 -942.43664551 1329.30700684 C-934.68456671 1311.20664308 -926.86063209 1293.13833722 -919.00509644 1275.08267212 C-911.26944303 1257.29685518 -903.64314761 1239.46644567 -896.06222534 1221.61419678 C-888.95227035 1204.87531925 -881.75869337 1188.17488872 -874.5 1171.5 C-866.60681389 1153.36720969 -858.79728137 1135.20093491 -851.0625 1117 C-844.76904853 1102.19082022 -838.4659769 1087.38698186 -832.0625 1072.625 C-825.50112153 1057.49647752 -818.9930521 1042.34547151 -812.5 1027.1875 C-811.99124329 1026.00000153 -811.48248657 1024.81250305 -810.95831299 1023.58901978 C-805.78187699 1011.5062856 -800.60816319 999.42238976 -795.43809509 987.33692932 C-792.93879329 981.49506897 -790.43846115 975.65365014 -787.9375 969.8125 C-787.44194611 968.6550528 -786.94639221 967.49760559 -786.43582153 966.30508423 C-778.68401753 948.20536135 -770.8603539 930.13769781 -763.00509644 912.08267212 C-755.26944303 894.29685518 -747.64314761 876.46644567 -740.06222534 858.61419678 C-732.48618052 840.77800982 -724.8071908 822.98884732 -717.0725708 805.22091675 C-709.59355734 788.03506793 -702.20609744 770.81194692 -694.875 753.5625 C-682.94576305 725.49402394 -682.94576305 725.49402394 -677.5625 713.125 C-671.55202691 699.31398033 -665.61832185 685.47038527 -659.6875 671.625 C-659.1734259 670.4250943 -658.65935181 669.2251886 -658.12969971 667.98892212 C-652.89160237 655.76231311 -647.65613582 643.53458144 -642.42449951 631.3052063 C-639.92972749 625.47392118 -637.43392888 619.64307598 -634.9375 613.8125 C-634.44221802 612.65568726 -633.94693604 611.49887451 -633.43664551 610.30700684 C-625.68456671 592.20664308 -617.86063209 574.13833722 -610.00509644 556.08267212 C-602.26944303 538.29685518 -594.64314761 520.46644567 -587.06222534 502.61419678 C-579.95227035 485.87531925 -572.75869337 469.17488872 -565.5 452.5 C-557.60681389 434.36720969 -549.79728137 416.20093491 -542.0625 398 C-535.76904853 383.19082022 -529.4659769 368.38698186 -523.0625 353.625 C-516.50112153 338.49647752 -509.99305065 323.34547214 -503.5 308.1875 C-502.9922403 307.00232788 -502.48448059 305.81715576 -501.96133423 304.59606934 C-496.7583552 292.45136875 -491.55818537 280.30546994 -486.3614502 268.15809631 C-473.34208984 237.72763473 -460.2395139 207.33536944 -447 177 C-446.34 177 -445.68 177 -445 177 C-438.11434563 192.18433722 -431.3497284 207.41227929 -424.8125 222.75 C-419.24689358 235.80667714 -413.59274732 248.82171798 -407.875 261.8125 C-402.17791954 274.75850773 -396.50666854 287.7143241 -390.89306641 300.69677734 C-386.5300203 310.78487867 -382.14358432 320.86266328 -377.75 330.9375 C-377.39119751 331.76033478 -377.03239502 332.58316956 -376.66271973 333.43093872 C-374.46925335 338.46105686 -372.27537356 343.49099459 -370.08135986 348.52087402 C-366.9494307 355.70113585 -363.81818821 362.88169702 -360.6875 370.0625 C-360.34207153 370.85477997 -359.99664307 371.64705994 -359.64074707 372.46334839 C-353.32389289 386.95285674 -347.02076827 401.44831846 -340.72006226 415.94485474 C-334.9877778 429.13328414 -329.24863021 442.31868747 -323.5 455.5 C-317.32349871 469.66239883 -311.15882321 483.82990479 -305 498 C-298.77780777 512.31554504 -292.5509336 526.62902449 -286.3125 540.9375 C-285.96619537 541.73179413 -285.61989075 542.52608826 -285.26309204 543.3444519 C-282.84238258 548.89644136 -280.42124528 554.4482442 -278 560 C-275.22886306 566.35403431 -272.45793206 572.70815832 -269.6875 579.0625 C-269.16840561 580.25309525 -269.16840561 580.25309525 -268.63882446 581.46774292 C-262.32261305 595.95578724 -256.02013092 610.44978486 -249.72006226 624.94485474 C-243.9877778 638.13328414 -238.24863021 651.31868747 -232.5 664.5 C-226.32349871 678.66239883 -220.15882321 692.82990479 -214 707 C-207.77780777 721.31554504 -201.5509336 735.62902449 -195.3125 749.9375 C-194.96619537 750.73179413 -194.61989075 751.52608826 -194.26309204 752.3444519 C-191.84238258 757.89644136 -189.42124528 763.4482442 -187 769 C-184.22886306 775.35403431 -181.45793206 781.70815832 -178.6875 788.0625 C-178.16840561 789.25309525 -178.16840561 789.25309525 -177.63882446 790.46774292 C-171.32363466 804.95344389 -165.0223105 819.44515695 -158.7230835 833.93780518 C-152.92634334 847.27400007 -147.1241867 860.60781146 -141.3125 873.9375 C-140.96619537 874.73179413 -140.61989075 875.52608826 -140.26309204 876.3444519 C-137.84238258 881.89644136 -135.42124528 887.4482442 -133 893 C-130.22886306 899.35403431 -127.45793206 905.70815832 -124.6875 912.0625 C-124.16840561 913.25309525 -124.16840561 913.25309525 -123.63882446 914.46774292 C-117.32261305 928.95578724 -111.02013092 943.44978486 -104.72006226 957.94485474 C-98.9877778 971.13328414 -93.24863021 984.31868747 -87.5 997.5 C-81.32349871 1011.66239883 -75.15882321 1025.82990479 -69 1040 C-62.77780777 1054.31554504 -56.5509336 1068.62902449 -50.3125 1082.9375 C-49.96619537 1083.73179413 -49.61989075 1084.52608826 -49.26309204 1085.3444519 C-46.84238258 1090.89644136 -44.42124528 1096.4482442 -42 1102 C-39.22886306 1108.35403431 -36.45793206 1114.70815832 -33.6875 1121.0625 C-33.34143707 1121.85623016 -32.99537415 1122.64996033 -32.63882446 1123.46774292 C-26.32261305 1137.95578724 -20.02013092 1152.44978486 -13.72006226 1166.94485474 C-7.9877778 1180.13328414 -2.24863021 1193.31868747 3.5 1206.5 C9.67650129 1220.66239883 15.84117679 1234.82990479 22 1249 C28.22219223 1263.31554504 34.4490664 1277.62902449 40.6875 1291.9375 C41.03380463 1292.73179413 41.38010925 1293.52608826 41.73690796 1294.3444519 C44.15761742 1299.89644136 46.57875472 1305.4482442 49 1311 C51.77113694 1317.35403431 54.54206794 1323.70815832 57.3125 1330.0625 C57.65856293 1330.85623016 58.00462585 1331.64996033 58.36117554 1332.46774292 C64.67738695 1346.95578724 70.97986908 1361.44978486 77.27993774 1375.94485474 C83.0122222 1389.13328414 88.75136979 1402.31868747 94.5 1415.5 C100.67650129 1429.66239883 106.84117679 1443.82990479 113 1458 C119.22219229 1472.31554519 125.44917087 1486.62897885 131.6875 1500.9375 C132.20496292 1502.12445465 132.20496292 1502.12445465 132.73287964 1503.33538818 C136.22033281 1511.33468857 139.70897186 1519.33347057 143.1993103 1527.33151245 C153.17911688 1550.20111096 163.11107322 1573.09095501 173 1596 C177.6958164 1589.67177955 182.21150745 1583.33023824 186.25 1576.5625 C186.93751343 1575.42325073 186.93751343 1575.42325073 187.63891602 1574.26098633 C188.60603496 1572.65675671 189.57093911 1571.05118993 190.53369141 1569.44433594 C191.99835217 1567.00274694 193.47267612 1564.56723109 194.94921875 1562.1328125 C241.5191335 1485.20151421 274.73314474 1403.51315202 317.29879761 791.27627563 C299.03454265 717.60073102 271.49726962 645.00454513 234.48388672 578.67822266 C232.97001994 575.94588988 231.483233 573.20039102 230.00390625 570.44921875 C223.34760574 558.08025194 216.37523284 545.95438763 209 534 C208.52626953 533.23155762 208.05253906 532.46311523 207.56445312 531.67138672 C190.60832246 504.27758303 172.37445052 477.75320714 152.71386719 452.23681641 C150.54791332 449.40996892 148.4287098 446.55174732 146.3125 443.6875 C138.57292201 433.33857857 130.26552215 423.41613851 121.88330078 413.58447266 C119.03640744 410.24246742 116.25433589 406.85600199 113.5 403.4375 C109.37192681 398.36248529 104.99654409 393.55984584 100.55078125 388.765625 C98.51598117 386.55944053 96.52353762 384.33367739 94.5625 382.0625 C87.43224585 373.85501321 80.04268999 365.8556979 72.23046875 358.29296875 C70.32703435 356.33619819 68.54696027 354.33960363 66.765625 352.2734375 C62.8827464 347.80332863 58.75925578 343.61159104 54.5625 339.4375 C53.85029297 338.72142578 53.13808594 338.00535156 52.40429688 337.26757812 C48.34099486 333.21165722 44.17198341 329.35359057 39.82397461 325.60571289 C37.2575967 323.34643468 34.8890483 320.94661573 32.5 318.5 C28.84288824 314.79322143 25.11035429 311.24694509 21.1484375 307.8671875 C18.96754262 305.97179159 16.84544254 304.0197348 14.7277832 302.05419922 C9.51626477 297.2185313 4.1786799 292.63074246 -1.36328125 288.171875 C-3.92420028 286.06243651 -6.37123455 283.87112352 -8.8125 281.625 C-13.16323073 277.66419325 -17.69807896 274.03040717 -22.34619141 270.43139648 C-26.32175941 267.34464055 -30.21579138 264.17747727 -34.07763672 260.94970703 C-43.00013009 253.49743243 -52.20683305 246.52522139 -61.62695312 239.71582031 C-63.9692422 238.02223928 -66.30547841 236.32059884 -68.640625 234.6171875 C-88.88665532 219.8796185 -109.72497886 206.20024865 -131 193 C-130.35976136 189.29699812 -128.73346457 186.83094007 -126.625 183.75 C-125.54025391 182.15671875 -125.54025391 182.15671875 -124.43359375 180.53125 C-123.62270679 179.35395243 -122.81149657 178.17687745 -122 177 C-121.1364141 175.73979205 -120.27314139 174.47936943 -119.41015625 173.21875 C-117.08715282 169.82987811 -114.75625635 166.44650596 -112.42333984 163.06445312 C-110.11202959 159.71206213 -107.80624118 156.35587922 -105.5 153 C-104.58336098 151.66664766 -103.66669428 150.33331435 -102.75 149 C-102.29625 148.34 -101.8425 147.68 -101.375 147 C-74.33333333 107.66666667 -47.29166667 68.33333333 -20.25 29 C-19.79544434 28.3387915 -19.34088867 27.67758301 -18.87255859 26.99633789 C-17.96416834 25.67511643 -17.05564173 24.35398871 -16.14697266 23.03295898 C-13.72749778 19.51510689 -11.31103502 15.99522923 -8.8984375 12.47265625 C-8.39248047 11.73466797 -7.88652344 10.99667969 -7.36523438 10.23632812 C-6.38911027 8.81244066 -5.41381818 7.38798238 -4.43945312 5.96289062 C-1.1124622 1.1124622 -1.1124622 1.1124622 0 0 Z M-444 1317 C-444.19806244 1317.52203506 -444.39612488 1318.04407013 -444.60018921 1318.58192444 C-453.66117534 1342.46217351 -462.73242722 1366.33834829 -471.875 1390.1875 C-478.36612247 1407.12044913 -484.84542581 1424.05785028 -491.3125 1441 C-491.75076111 1442.1481015 -492.18902222 1443.296203 -492.64056396 1444.47909546 C-494.86940455 1450.31804075 -497.09807548 1456.15705078 -499.32666016 1461.99609375 C-503.28029142 1472.35462568 -507.23545799 1482.7125714 -511.19052124 1493.07055664 C-513.37707823 1498.7970133 -515.56353395 1504.52350862 -517.75 1510.25 C-518.62499952 1512.54166685 -519.49999952 1514.83333352 -520.375 1517.125 C-520.808125 1518.259375 -521.24125 1519.39375 -521.6875 1520.5625 C-565 1634 -608.3125 1747.4375 -673.9372406 1919.31181335 C-674.81311172 1921.60576637 -675.68897638 1923.89972186 -676.56483459 1926.19367981 C-678.73895371 1931.88788543 -680.91318154 1937.58204948 -683.08764648 1943.27612305 C-687.18483443 1954.00540637 -691.28089558 1964.73511653 -695.37332153 1975.46621704 C-697.30424014 1980.52941427 -699.23586874 1985.5923406 -701.16748047 1990.65527344 C-702.08720706 1993.06645727 -703.0066473 1995.47775035 -703.92578125 1997.88916016 C-705.2010953 2001.23497856 -706.47740032 2004.58041743 -707.75390625 2007.92578125 C-708.12588638 2008.90247269 -708.49786652 2009.87916412 -708.88111877 2010.88545227 C-710.94413137 2016.28879057 -713.06370096 2021.66163556 -715.27427673 2027.0065155 C-716.11402811 2028.95964397 -716.11402811 2028.95964397 -716 2031 C-693.10682204 2033.50725121 -670.00105902 2033.20485436 -647 2033.1875 C-646.20595261 2033.18723312 -645.41190521 2033.18696625 -644.59379578 2033.18669128 C-619.67887457 2033.17619591 -594.85262091 2032.92537883 -570 2031 C-569.16253235 2030.93683594 -568.3250647 2030.87367188 -567.46221924 2030.80859375 C-475.40956344 2023.84528363 -384.36526723 2005.55316399 -273 1964 C-272.34594177 1963.73636658 -271.69188354 1963.47273315 -271.01800537 1963.20111084 C-242.72010498 1951.78085879 -215.19107054 1938.84538254 -188 1925 C-191.96260077 1914.10729447 -196.28084809 1903.41007541 -200.85806274 1892.76196289 C-202.74948501 1888.36042632 -204.62797505 1883.95336874 -206.5078125 1879.546875 C-206.88925919 1878.65339355 -207.27070587 1877.75991211 -207.66371155 1876.83935547 C-211.25848329 1868.41160697 -214.79616425 1859.96072458 -218.3125 1851.5 C-218.61045471 1850.78341217 -218.90840942 1850.06682434 -219.21539307 1849.32852173 C-220.78894952 1845.54373755 -222.36149537 1841.75853455 -223.93359375 1837.97314453 C-227.88603923 1828.45827229 -231.8499902 1818.94818403 -235.8125 1809.4375 C-236.23614838 1808.42056061 -236.65979675 1807.40362122 -237.09628296 1806.35586548 C-245.30223517 1786.65920317 -253.53731171 1766.97481201 -261.78222656 1747.29443359 C-265.14752008 1739.26118222 -268.51013208 1731.22680831 -271.87298584 1723.1925354 C-273.74855114 1718.71164586 -275.62428391 1714.23082642 -277.5 1709.75 C-278.25000081 1707.95833367 -279.00000081 1706.166667 -279.75 1704.375 C-280.12125 1703.488125 -280.4925 1702.60125 -280.875 1701.6875 C-336.5625 1568.65625 -336.5625 1568.65625 -392.25 1435.625 C-392.62123993 1434.73815018 -392.99247986 1433.85130035 -393.37496948 1432.93757629 C-394.12507443 1431.14565666 -394.87517615 1429.35373568 -395.62527466 1427.56181335 C-397.49864259 1423.086506 -399.37206624 1418.61122198 -401.24560547 1414.13598633 C-404.64005425 1406.02767102 -408.03407931 1397.91917959 -411.42605591 1389.80982971 C-421.58368984 1365.52564823 -431.77292026 1341.25502011 -442 1317 C-442.66 1317 -443.32 1317 -444 1317 Z " fill="#FFFFFF" transform="translate(2089,120)"/>
</svg>
